<svg id="group_add_black_24dp" xmlns="http://www.w3.org/2000/svg" width="56" height="56" viewBox="0 0 56 56">
  <g id="Group_10036" data-name="Group 10036">
    <rect id="Rectangle_3191" data-name="Rectangle 3191" width="56" height="56" fill="none"/>
    <rect id="Rectangle_3192" data-name="Rectangle 3192" width="56" height="56" fill="none"/>
  </g>
  <g id="Group_10038" data-name="Group 10038" transform="translate(4.9 15.344)">
    <g id="Group_10037" data-name="Group 10037">
      <path id="Path_44611" data-name="Path 44611" d="M24.373,10.187V7H21.187v3.187H18v3.187h3.187V16.56h3.187V13.373H27.56V10.187Z" transform="translate(18.759 -2.22)" fill="#204180"/>
      <path id="Path_44612" data-name="Path 44612" d="M10.373,16.746A6.373,6.373,0,1,0,4,10.373,6.371,6.371,0,0,0,10.373,16.746Zm0-9.56a3.187,3.187,0,1,1-3.187,3.187A3.2,3.2,0,0,1,10.373,7.187Z" transform="translate(4.393 -4)" fill="#204180"/>
      <path id="Path_44613" data-name="Path 44613" d="M12.746,13C8.492,13,0,15.135,0,19.373v4.78H25.492v-4.78C25.492,15.135,17,13,12.746,13Zm9.56,7.966H3.187V19.389c.319-1.147,5.258-3.2,9.56-3.2s9.241,2.055,9.56,3.187Z" transform="translate(0 1.339)" fill="#204180"/>
      <path id="Path_44614" data-name="Path 44614" d="M12.51,4.05a9.529,9.529,0,0,1,0,12.587,6.342,6.342,0,0,0,0-12.587Z" transform="translate(12.35 -3.97)" fill="#204180"/>
      <path id="Path_44615" data-name="Path 44615" d="M16.53,13.83a6.751,6.751,0,0,1,2.342,5.051v4.78h3.187v-4.78C22.059,16.57,19.525,14.882,16.53,13.83Z" transform="translate(16.312 1.832)" fill="#204180"/>
    </g>
  </g>
</svg>
