<svg xmlns="http://www.w3.org/2000/svg" xmlns:xlink="http://www.w3.org/1999/xlink" width="56" height="56" viewBox="0 0 56 56">
  <defs>
    <filter id="Icon_style_" x="0" y="0" width="56" height="56" filterUnits="userSpaceOnUse">
      <feOffset dy="1" input="SourceAlpha"/>
      <feGaussianBlur stdDeviation="2" result="blur"/>
      <feFlood flood-opacity="0.251"/>
      <feComposite operator="in" in2="blur"/>
      <feComposite in="SourceGraphic"/>
    </filter>
  </defs>
  <g id="Icon" transform="translate(6 5)">
    <g transform="matrix(1, 0, 0, 1, -6, -5)" filter="url(#Icon_style_)">
      <path id="Icon_style_2" data-name="Icon (style)" d="M22,0A22,22,0,1,1,0,22,22,22,0,0,1,22,0Z" transform="translate(6 5)" fill="#3b1a69"/>
    </g>
    <path id="Icon_feather-phone-call" data-name="Icon feather-phone-call" d="M18.493,14.5v2.312a1.541,1.541,0,0,1-1.68,1.541,15.249,15.249,0,0,1-6.65-2.366A15.026,15.026,0,0,1,5.54,11.361,15.25,15.25,0,0,1,3.174,4.68,1.541,1.541,0,0,1,4.708,3H7.019A1.541,1.541,0,0,1,8.56,4.325,9.894,9.894,0,0,0,9.1,6.491a1.541,1.541,0,0,1-.347,1.626L7.774,9.1A12.329,12.329,0,0,0,12.4,13.719l.979-.979A1.541,1.541,0,0,1,15,12.393a9.894,9.894,0,0,0,2.165.539A1.541,1.541,0,0,1,18.493,14.5Z" transform="translate(11.438 11.322)" fill="none" stroke="#f6f6f9" stroke-linecap="round" stroke-linejoin="round" stroke-width="2"/>
  </g>
</svg>
