<?xml version="1.0" encoding="utf-8"?>
<!-- Generator: Adobe Illustrator 27.9.1, SVG Export Plug-In . SVG Version: 6.00 Build 0)  -->
<svg version="1.1" id="Layer_1" xmlns="http://www.w3.org/2000/svg" xmlns:xlink="http://www.w3.org/1999/xlink" x="0px" y="0px"
	 viewBox="0 0 24 24" style="enable-background:new 0 0 24 24;" xml:space="preserve">
<path d="M12,11.7c-1,0-1.8-0.3-2.5-1c-0.7-0.7-1-1.5-1-2.5s0.3-1.8,1-2.5c0.7-0.7,1.5-1,2.5-1s1.8,0.3,2.5,1c0.7,0.7,1,1.5,1,2.5
	s-0.3,1.8-1,2.5C13.8,11.3,13,11.7,12,11.7z M4.5,19.3v-2.2c0-0.5,0.1-0.9,0.4-1.4c0.3-0.4,0.6-0.7,1.1-1c1-0.5,2-0.8,3-1.1
	c1-0.2,2-0.4,3-0.4s2,0.1,3,0.4c1,0.2,2,0.6,3,1.1c0.4,0.2,0.8,0.5,1.1,1s0.4,0.9,0.4,1.4v2.2H4.5z M6,17.8h12v-0.7
	c0-0.2-0.1-0.4-0.2-0.6c-0.1-0.2-0.3-0.3-0.5-0.4c-0.9-0.4-1.7-0.7-2.6-1c-0.9-0.2-1.8-0.3-2.7-0.3s-1.8,0.1-2.7,0.3
	c-0.9,0.2-1.8,0.5-2.6,1c-0.2,0.1-0.4,0.2-0.5,0.4C6.1,16.7,6,16.9,6,17.1V17.8z M12,10.2c0.6,0,1-0.2,1.4-0.6
	C13.8,9.2,14,8.7,14,8.2s-0.2-1-0.6-1.4C13,6.4,12.6,6.2,12,6.2s-1,0.2-1.4,0.6C10.2,7.2,10,7.6,10,8.2s0.2,1,0.6,1.4
	C11,10,11.4,10.2,12,10.2z"/>
</svg>
