<svg height="112.034" viewBox="0 0 117.93 112.034" width="117.93" xmlns="http://www.w3.org/2000/svg"><path d="m112.033 112.034a5.912 5.912 0 0 1 -.994-.084l-40.22-6.885a65.785 65.785 0 0 1 -11.854 1.072 64.278 64.278 0 0 1 -22.665-4.082 61.843 61.843 0 0 1 -10-4.815 58.8 58.8 0 0 1 -8.77-6.41 52.732 52.732 0 0 1 -12.802-16.838 48.661 48.661 0 0 1 0-41.848 52.733 52.733 0 0 1 12.794-16.838 58.8 58.8 0 0 1 8.77-6.41 61.842 61.842 0 0 1 10-4.815 64.993 64.993 0 0 1 45.337 0 61.842 61.842 0 0 1 10 4.815 58.794 58.794 0 0 1 8.77 6.41 52.733 52.733 0 0 1 12.801 16.839 48.315 48.315 0 0 1 4.728 20.924 49.133 49.133 0 0 1 -9.124 28.382l8.727 22.559a5.9 5.9 0 0 1 -5.5 8.024zm-41.277-18.859a5.919 5.919 0 0 1 1 .085l31.032 5.312-6.163-15.923a5.912 5.912 0 0 1 .909-5.829 37.571 37.571 0 0 0 8.6-23.752 36.533 36.533 0 0 0 -3.612-15.8 41.523 41.523 0 0 0 -9.952-13.15 47.453 47.453 0 0 0 -14.96-8.992 53.821 53.821 0 0 0 -37.29 0 47.453 47.453 0 0 0 -14.962 8.994 41.524 41.524 0 0 0 -9.952 13.15 36.353 36.353 0 0 0 0 31.6 41.525 41.525 0 0 0 9.952 13.15 47.455 47.455 0 0 0 14.962 8.991 52.68 52.68 0 0 0 18.645 3.333 53.894 53.894 0 0 0 10.627-1.053 5.874 5.874 0 0 1 1.164-.116z" fill="#553285" opacity=".142"/></svg>