<svg xmlns="http://www.w3.org/2000/svg" width="124.671" height="120.89" viewBox="0 0 124.671 120.89">
    <g data-name="Group 9220">
        <path data-name="Path 659" d="M73.8 115.647a50.17 50.17 0 1 1 0-100.341.956.956 0 0 1 0 1.912 48.25 48.25 0 1 0 39.032 19.875.957.957 0 0 1 1.546-1.127A50.155 50.155 0 0 1 73.8 115.647z" transform="translate(-9.576 -5.031)" style="fill:#204180"/>
        <g data-name="Group 539" style="opacity:.3">
            <g data-name="Group 532">
                <g data-name="Group 530">
                    <path data-name="Path 660" d="M15.265 73.3h-2.04a.956.956 0 1 1 0-1.912h2.04a.956.956 0 1 1 0 1.912z" transform="translate(-12.269 8.259)" style="fill:#204180"/>
                    <path data-name="Path 661" d="M21.7 73.3h-2.291a.956.956 0 1 1 0-1.912H21.7a.956.956 0 1 1 0 1.912z" transform="translate(-10.803 8.259)" style="fill:#204180"/>
                </g>
                <g data-name="Group 531">
                    <path data-name="Path 662" d="M17.193 77.758a.956.956 0 0 1-.956-.956v-2.04a.956.956 0 1 1 1.912 0V76.8a.956.956 0 0 1-.956.958z" transform="translate(-11.329 8.833)" style="fill:#204180"/>
                    <path data-name="Path 663" d="M17.193 71.623a.956.956 0 0 1-.956-.956v-2.295a.956.956 0 1 1 1.912 0v2.295a.956.956 0 0 1-.956.956z" transform="translate(-11.329 7.319)" style="fill:#204180"/>
                </g>
            </g>
            <g data-name="Group 535">
                <g data-name="Group 533">
                    <path data-name="Path 664" d="M80.5 82.159h-2.04a.956.956 0 0 1 0-1.912h2.04a.956.956 0 0 1 0 1.912z" transform="translate(3.193 10.359)" style="fill:#204180"/>
                    <path data-name="Path 665" d="M86.943 82.159h-2.295a.956.956 0 0 1 0-1.912h2.295a.956.956 0 0 1 0 1.912z" transform="translate(4.658 10.359)" style="fill:#204180"/>
                </g>
                <g data-name="Group 534">
                    <path data-name="Path 666" d="M82.432 86.621a.957.957 0 0 1-.956-.956v-2.04a.956.956 0 0 1 1.912 0v2.04a.956.956 0 0 1-.956.956z" transform="translate(4.133 10.933)" style="fill:#204180"/>
                    <path data-name="Path 667" d="M82.432 80.486a.957.957 0 0 1-.956-.956v-2.295a.956.956 0 0 1 1.912 0v2.295a.956.956 0 0 1-.956.956z" transform="translate(4.133 9.419)" style="fill:#204180"/>
                </g>
            </g>
            <g data-name="Group 538">
                <g data-name="Group 536">
                    <path data-name="Path 668" d="M104.621 21.146h-2.04a.956.956 0 1 1 0-1.912h2.04a.956.956 0 1 1 0 1.912z" transform="translate(8.909 -4.101)" style="fill:#204180"/>
                    <path data-name="Path 669" d="M111.06 21.146h-2.295a.956.956 0 1 1 0-1.912h2.295a.956.956 0 1 1 0 1.912z" transform="translate(10.375 -4.101)" style="fill:#204180"/>
                </g>
                <g data-name="Group 537">
                    <path data-name="Path 670" d="M106.549 25.608a.956.956 0 0 1-.956-.956v-2.04a.956.956 0 1 1 1.912 0v2.04a.956.956 0 0 1-.956.956z" transform="translate(9.849 -3.527)" style="fill:#204180"/>
                    <path data-name="Path 671" d="M106.549 19.473a.956.956 0 0 1-.956-.956v-2.295a.956.956 0 1 1 1.912 0v2.295a.956.956 0 0 1-.956.956z" transform="translate(9.849 -5.041)" style="fill:#204180"/>
                </g>
            </g>
            <path data-name="Path 672" d="M26.731 91.945a3.1 3.1 0 1 1 3.1-3.1 3.1 3.1 0 0 1-3.1 3.1zm0-4.286a1.187 1.187 0 1 0 1.186 1.188 1.188 1.188 0 0 0-1.186-1.188z" transform="translate(-9.576 11.663)" style="fill:#204180"/>
            <path data-name="Path 673" d="M109.176 43.47a3.1 3.1 0 1 1 3.1-3.1 3.1 3.1 0 0 1-3.1 3.1zm0-4.286a1.187 1.187 0 1 0 1.188 1.186 1.187 1.187 0 0 0-1.188-1.187z" transform="translate(9.964 .174)" style="fill:#204180"/>
        </g>
        <g data-name="Group 540" style="opacity:.3">
            <path data-name="Path 674" d="M93.772 18.823a.949.949 0 0 1-.562-.183 58.648 58.648 0 0 0-5.734-3.686.956.956 0 1 1 .939-1.666 60.718 60.718 0 0 1 5.92 3.806.956.956 0 0 1-.564 1.729z" transform="translate(5.441 -5.539)" style="fill:#204180"/>
            <path data-name="Path 675" d="M50.072 11.587a.956.956 0 0 1-.285-1.869 60.856 60.856 0 0 1 32.158-1.044.956.956 0 0 1-.448 1.859 58.944 58.944 0 0 0-31.14 1.011.952.952 0 0 1-.285.043z" transform="translate(-3.536 -7)" style="fill:#204180"/>
            <path data-name="Path 676" d="M31.364 22.519a.956.956 0 0 1-.657-1.651 63.546 63.546 0 0 1 2.934-2.6.956.956 0 0 1 1.22 1.472 56.81 56.81 0 0 0-2.84 2.515.957.957 0 0 1-.657.264z" transform="translate(-7.969 -4.381)" style="fill:#204180"/>
            <path data-name="Path 677" d="M16.757 70.183a.957.957 0 0 1-.948-.836 61.32 61.32 0 0 1 0-15.334 59.84 59.84 0 0 1 7.35-22.125.956.956 0 1 1 1.664.943A57.93 57.93 0 0 0 17.7 54.253a59.374 59.374 0 0 0 0 14.854.956.956 0 0 1-.829 1.069 1 1 0 0 1-.114.007z" transform="translate(-11.544 -1.216)" style="fill:#204180"/>
            <path data-name="Path 678" d="M41.615 99.522a.957.957 0 0 1-.477-.127 60.694 60.694 0 0 1-6.695-4.488.956.956 0 0 1 1.168-1.514 58.779 58.779 0 0 0 6.483 4.346.956.956 0 0 1-.479 1.784z" transform="translate(-7.101 13.428)" style="fill:#204180"/>
            <path data-name="Path 679" d="M67.369 105.492a60.585 60.585 0 0 1-15.887-2.11.956.956 0 1 1 .5-1.844 59.015 59.015 0 0 0 27.906.7.956.956 0 1 1 .407 1.869 60.843 60.843 0 0 1-12.926 1.385z" transform="translate(-3.142 15.398)" style="fill:#204180"/>
            <path data-name="Path 680" d="M87.947 99.438a.957.957 0 0 1-.47-1.79 58.582 58.582 0 0 0 4.2-2.606.956.956 0 1 1 1.076 1.581 59.9 59.9 0 0 1-4.338 2.692.942.942 0 0 1-.468.123z" transform="translate(5.441 13.827)" style="fill:#204180"/>
            <path data-name="Path 681" d="M100.053 94.2a.956.956 0 0 1-.709-1.6 58.585 58.585 0 0 0 13.462-25.418.956.956 0 1 1 1.858.45 60.5 60.5 0 0 1-13.9 26.249.955.955 0 0 1-.711.319z" transform="translate(8.31 7.09)" style="fill:#204180"/>
            <path data-name="Path 682" d="M112.615 58.864a.956.956 0 0 1-.956-.956c0-1.76-.079-3.538-.235-5.282a58.316 58.316 0 0 0-.542-4.275.957.957 0 0 1 1.888-.31 61.054 61.054 0 0 1 .801 9.868.956.956 0 0 1-.956.955z" transform="translate(11.1 2.537)" style="fill:#204180"/>
        </g>
        <path d="M126.925-805.365v-4.07a22.6 22.6 0 0 1-14.372-6.483 22.6 22.6 0 0 1-6.483-14.372H102v-2.785h4.07a22.6 22.6 0 0 1 6.483-14.372 22.6 22.6 0 0 1 14.372-6.483V-858h2.785v4.07a22.6 22.6 0 0 1 14.372 6.483 22.6 22.6 0 0 1 6.483 14.372h4.07v2.785h-4.07a22.6 22.6 0 0 1-6.483 14.372 22.6 22.6 0 0 1-14.372 6.483v4.07zm1.392-6.823A18.784 18.784 0 0 0 142.1-817.9a18.783 18.783 0 0 0 5.709-13.785 18.783 18.783 0 0 0-5.709-13.785 18.784 18.784 0 0 0-13.785-5.709 18.784 18.784 0 0 0-13.785 5.709 18.783 18.783 0 0 0-5.709 13.785 18.783 18.783 0 0 0 5.709 13.785 18.784 18.784 0 0 0 13.787 5.712zm0-11.14a8.045 8.045 0 0 1-5.9-2.454 8.045 8.045 0 0 1-2.454-5.9 8.045 8.045 0 0 1 2.454-5.9 8.045 8.045 0 0 1 5.9-2.454 8.045 8.045 0 0 1 5.9 2.454 8.045 8.045 0 0 1 2.454 5.9 8.045 8.045 0 0 1-2.454 5.9 8.045 8.045 0 0 1-5.9 2.454zm0-2.785a5.364 5.364 0 0 0 3.934-1.636 5.363 5.363 0 0 0 1.636-3.934 5.363 5.363 0 0 0-1.636-3.934 5.363 5.363 0 0 0-3.934-1.636 5.363 5.363 0 0 0-3.934 1.636 5.363 5.363 0 0 0-1.636 3.934 5.363 5.363 0 0 0 1.636 3.934 5.364 5.364 0 0 0 3.934 1.636zm0-5.57z" transform="translate(-63.482 892.127)" style="fill:#204180"/>
    </g>
</svg>
