<svg xmlns="http://www.w3.org/2000/svg" width="76" height="76" viewBox="0 0 76 76"><g transform="translate(0 0.246)"><rect width="76" height="76" transform="translate(0 -0.246)" fill="none"/><path d="M51.8,54.4H59v6H41v-18h6v8.189A23.949,23.949,0,0,0,35,8.11V2.05A29.969,29.969,0,0,1,51.8,54.4ZM8,31.9a23.852,23.852,0,0,1,9-18.689V21.4h6V3.4H5v6h7.2A29.969,29.969,0,0,0,29,61.745v-6.06A24.012,24.012,0,0,1,8,31.9ZM44.72,20.229,27.74,37.207l-8.49-8.489-4.23,4.23L27.74,45.667,48.95,24.458Z" transform="translate(6.001 5.855)" fill="rgba(32,65,128,0.4)"/></g></svg>