<svg xmlns="http://www.w3.org/2000/svg" width="194.278" height="111.422" viewBox="0 0 194.278 111.422">
  <g id="Grupo_9384" data-name="Grupo 9384" transform="translate(-412.214 -454.774)">
    <path id="Trazado_44552" data-name="Trazado 44552" d="M856.532,854.471a9.536,9.536,0,0,1,1.994-6.279,6.567,6.567,0,0,1,5.337-2.414,6.668,6.668,0,0,1,5.385,2.414,10.71,10.71,0,0,1,0,12.519,6.68,6.68,0,0,1-5.385,2.4,6.58,6.58,0,0,1-5.337-2.4,9.445,9.445,0,0,1-1.994-6.24m3.59,0a6.328,6.328,0,0,0,1,3.9,3.272,3.272,0,0,0,2.736,1.3,3.333,3.333,0,0,0,2.773-1.3,6.273,6.273,0,0,0,1.016-3.9,6.375,6.375,0,0,0-1.016-3.938,3.322,3.322,0,0,0-2.773-1.312,3.261,3.261,0,0,0-2.736,1.312,6.432,6.432,0,0,0-1,3.938" transform="translate(-366.924 -362.318)" fill="#ed1c24"/>
    <path id="Trazado_44553" data-name="Trazado 44553" d="M895.391,853.175l-.445,3.394a3.344,3.344,0,0,0-1.981-.6q-1.611,0-1.958,2.476v7.33h-3.614v-8.915q0-1.164-.719-1.164a1.814,1.814,0,0,0-.992.372l-.122-2.923a6.341,6.341,0,0,1,2.675-.569,2.409,2.409,0,0,1,2.476,1.534,2.737,2.737,0,0,1,2.7-1.51,3.181,3.181,0,0,1,1.981.569" transform="translate(-379.359 -365.232)" fill="#ed1c24"/>
    <path id="Trazado_44554" data-name="Trazado 44554" d="M905.183,858.864a7,7,0,0,1,1.374-4.556,4.558,4.558,0,0,1,3.726-1.685,3.979,3.979,0,0,1,3.047,1.214v-.991h3.616v11.936a5.774,5.774,0,0,1-1.586,4.458,5.965,5.965,0,0,1-4.209,1.46,10.256,10.256,0,0,1-4.654-1.064l.792-3.071a7.458,7.458,0,0,0,3.442,1.016,3.3,3.3,0,0,0,1.907-.482,2.047,2.047,0,0,0,.693-1.8v-1.288a4.405,4.405,0,0,1-3.047,1.04,4.577,4.577,0,0,1-3.726-1.671,6.907,6.907,0,0,1-1.374-4.52m3.666,0a3.367,3.367,0,0,0,.669,2.2,2.262,2.262,0,0,0,1.855.817,2.659,2.659,0,0,0,1.957-.941v-4.111a2.315,2.315,0,0,0-1.957-1.013,2.262,2.262,0,0,0-1.855.817,3.4,3.4,0,0,0-.669,2.228" transform="translate(-387.766 -365.25)" fill="#ed1c24"/>
    <path id="Trazado_44555" data-name="Trazado 44555" d="M942.505,852.846v8.965c0,.76.224,1.14.669,1.14a1.862,1.862,0,0,0,1.04-.373l.125,2.9a5.842,5.842,0,0,1-2.651.571,3.432,3.432,0,0,1-1.647-.335,1.98,1.98,0,0,1-.877-1.25,3.934,3.934,0,0,1-3.394,1.559,4.4,4.4,0,0,1-3.678-1.745,7.893,7.893,0,0,1-1.348-4.916,8.086,8.086,0,0,1,1.348-4.928,4.473,4.473,0,0,1,3.8-1.807,3.672,3.672,0,0,1,3,1.14v-.917Zm-3.614,3.962a2.422,2.422,0,0,0-1.957-.989,2.149,2.149,0,0,0-1.869.927,4.485,4.485,0,0,0-.657,2.613,4.328,4.328,0,0,0,.669,2.564,2.159,2.159,0,0,0,1.857.927,2.368,2.368,0,0,0,1.957-1.14Z" transform="translate(-398.715 -365.25)" fill="#ed1c24"/>
    <path id="Trazado_44556" data-name="Trazado 44556" d="M962.361,865.8h-3.59V852.845h3.59v1.116a4.319,4.319,0,0,1,3.442-1.339q3.94,0,3.939,5.053v4.307c0,.645.24.968.717.968a1.641,1.641,0,0,0,.992-.349l.122,2.873a5.3,5.3,0,0,1-2.5.571,3,3,0,0,1-2.228-.732,3.23,3.23,0,0,1-.717-2.34v-4.558q0-2.425-1.809-2.426-1.289,0-1.957,1.807Z" transform="translate(-410.721 -365.25)" fill="#ed1c24"/>
    <path id="Trazado_44557" data-name="Trazado 44557" d="M984.679,845.322q0-1.71,2.005-1.709,1.933,0,1.931,1.709,0,1.734-1.931,1.732-2,0-2.005-1.732m.172,3.664h3.616v9.137q0,.968.693.968a1.644,1.644,0,0,0,.992-.349l.124,2.873a5.083,5.083,0,0,1-2.478.571,3.012,3.012,0,0,1-2.23-.731,3.25,3.25,0,0,1-.717-2.34Z" transform="translate(-421.82 -361.391)" fill="#ed1c24"/>
    <path id="Trazado_44558" data-name="Trazado 44558" d="M997.8,863.414l4.581-7.529H997.8v-2.873h9.113v2.55l-4.557,7.529h4.557v2.873H997.8Z" transform="translate(-427.441 -365.416)" fill="#ed1c24"/>
    <path id="Trazado_44559" data-name="Trazado 44559" d="M1029.494,852.846v8.965c0,.76.224,1.14.669,1.14a1.861,1.861,0,0,0,1.04-.373l.125,2.9a5.843,5.843,0,0,1-2.651.571,3.432,3.432,0,0,1-1.647-.335,1.98,1.98,0,0,1-.878-1.25,3.935,3.935,0,0,1-3.394,1.559,4.4,4.4,0,0,1-3.678-1.745,7.893,7.893,0,0,1-1.348-4.916,8.085,8.085,0,0,1,1.348-4.928,4.473,4.473,0,0,1,3.8-1.807,3.672,3.672,0,0,1,3,1.14v-.917Zm-3.614,3.962a2.422,2.422,0,0,0-1.957-.989,2.149,2.149,0,0,0-1.869.927,4.484,4.484,0,0,0-.657,2.613,4.329,4.329,0,0,0,.669,2.564,2.159,2.159,0,0,0,1.857.927,2.368,2.368,0,0,0,1.957-1.14Z" transform="translate(-435.979 -365.25)" fill="#ed1c24"/>
    <path id="Trazado_44560" data-name="Trazado 44560" d="M1053.643,853.175l-.446,3.394a3.343,3.343,0,0,0-1.979-.6q-1.611,0-1.956,2.476v7.33h-3.618v-8.915q0-1.164-.717-1.164a1.8,1.8,0,0,0-.99.372l-.124-2.923a6.34,6.34,0,0,1,2.674-.569,2.409,2.409,0,0,1,2.476,1.534,2.738,2.738,0,0,1,2.7-1.51,3.18,3.18,0,0,1,1.981.569" transform="translate(-447.15 -365.232)" fill="#ed1c24"/>
    <path id="Trazado_44561" data-name="Trazado 44561" d="M857.96,946.525l.841-3.342a7.211,7.211,0,0,0,4.087,1.362,2.9,2.9,0,0,0,1.7-.458,1.59,1.59,0,0,0,.655-1.4,1.393,1.393,0,0,0-.421-1.066,3.781,3.781,0,0,0-1.386-.717l-2.376-.769a4.388,4.388,0,0,1-3.319-4.457,4.8,4.8,0,0,1,1.584-3.688,6.187,6.187,0,0,1,4.36-1.463,10.215,10.215,0,0,1,5.1,1.19l-1.016,3.194a7.192,7.192,0,0,0-3.937-1.114q-2.476,0-2.476,1.635,0,1.187,1.411,1.635l2.428.841a6.46,6.46,0,0,1,2.9,1.795,4.181,4.181,0,0,1,.916,2.761,5.086,5.086,0,0,1-1.6,3.85,5.967,5.967,0,0,1-4.3,1.525,10.318,10.318,0,0,1-2.86-.409,10.509,10.509,0,0,1-2.292-.905" transform="translate(-367.439 -398.623)" fill="#ed1c24"/>
    <path id="Trazado_44562" data-name="Trazado 44562" d="M889.335,937.72h3.59v9.137q0,.968.719.968a1.644,1.644,0,0,0,.992-.349l.124,2.873a5.134,5.134,0,0,1-2.5.571q-2.107,0-2.675-1.412a4.4,4.4,0,0,1-3.566,1.412q-4.062,0-4.061-5.052V937.72h3.616V945.4a2.927,2.927,0,0,0,.37,1.635,1.5,1.5,0,0,0,1.336.545,2.2,2.2,0,0,0,2.056-1.363Z" transform="translate(-377.814 -401.705)" fill="#ed1c24"/>
    <path id="Trazado_44563" data-name="Trazado 44563" d="M912.144,950.506h-3.59V937.553h3.59v1.09a4.144,4.144,0,0,1,3.343-1.312,3.333,3.333,0,0,1,3.294,1.908,3.89,3.89,0,0,1,3.566-1.908,3.73,3.73,0,0,1,3.131,1.25,5.923,5.923,0,0,1,.98,3.7v4.408c0,.645.238.968.719.968a1.716,1.716,0,0,0,.99-.349l.1,2.873a5.14,5.14,0,0,1-2.5.571,2.917,2.917,0,0,1-2.2-.732,3.311,3.311,0,0,1-.7-2.34v-4.656q0-2.326-1.783-2.328c-.757,0-1.328.487-1.707,1.46v8.346h-3.59v-7.478q0-2.326-1.759-2.328-1.286,0-1.883,1.584Z" transform="translate(-389.209 -401.537)" fill="#ed1c24"/>
    <path id="Trazado_44564" data-name="Trazado 44564" d="M957.531,937.554v8.965q0,1.14.669,1.14a1.859,1.859,0,0,0,1.04-.373l.124,2.9a5.838,5.838,0,0,1-2.648.571,3.421,3.421,0,0,1-1.647-.335,1.993,1.993,0,0,1-.881-1.25,3.926,3.926,0,0,1-3.392,1.559,4.39,4.39,0,0,1-3.676-1.745,7.868,7.868,0,0,1-1.35-4.916,8.058,8.058,0,0,1,1.35-4.928,4.464,4.464,0,0,1,3.8-1.808,3.662,3.662,0,0,1,3,1.14v-.917Zm-3.616,3.962a2.416,2.416,0,0,0-1.956-.989,2.149,2.149,0,0,0-1.869.927,4.472,4.472,0,0,0-.655,2.613,4.316,4.316,0,0,0,.667,2.564,2.159,2.159,0,0,0,1.857.927,2.365,2.365,0,0,0,1.956-1.14Z" transform="translate(-405.15 -401.537)" fill="#ed1c24"/>
    <path id="Trazado_44565" data-name="Trazado 44565" d="M981.679,937.882l-.445,3.394a3.344,3.344,0,0,0-1.981-.6q-1.611,0-1.958,2.476v7.33h-3.614v-8.915q0-1.164-.719-1.164a1.814,1.814,0,0,0-.992.372l-.122-2.923a6.341,6.341,0,0,1,2.675-.569A2.409,2.409,0,0,1,977,938.823a2.737,2.737,0,0,1,2.7-1.51,3.181,3.181,0,0,1,1.981.569" transform="translate(-416.322 -401.52)" fill="#ed1c24"/>
    <path id="Trazado_44566" data-name="Trazado 44566" d="M861.27,891.849v9.78q0,3.937,3,3.939,3.048,0,3.045-3.963v-9.756h3.666v10.029A7.575,7.575,0,0,1,869.295,907a7.512,7.512,0,0,1-10.031.076,7.6,7.6,0,0,1-1.659-5.2V891.849Z" transform="translate(-367.383 -382.055)" fill="#ed1c24"/>
    <path id="Trazado_44567" data-name="Trazado 44567" d="M890.393,911.434H886.8V898.481h3.59V899.6a4.32,4.32,0,0,1,3.442-1.339q3.94,0,3.939,5.053v4.307c0,.645.24.968.717.968a1.641,1.641,0,0,0,.992-.349l.122,2.873a5.3,5.3,0,0,1-2.5.571,3,3,0,0,1-2.228-.732,3.23,3.23,0,0,1-.717-2.34v-4.558q0-2.425-1.809-2.426-1.289,0-1.957,1.807Z" transform="translate(-379.891 -384.799)" fill="#ed1c24"/>
    <path id="Trazado_44568" data-name="Trazado 44568" d="M912.712,890.958q0-1.711,2.005-1.709,1.933,0,1.932,1.709,0,1.734-1.932,1.733-2,0-2.005-1.733m.172,3.664H916.5v9.137q0,.968.693.968a1.644,1.644,0,0,0,.992-.349l.124,2.873a5.082,5.082,0,0,1-2.478.571,3.012,3.012,0,0,1-2.23-.731,3.249,3.249,0,0,1-.717-2.34Z" transform="translate(-390.99 -380.939)" fill="#ed1c24"/>
    <path id="Trazado_44569" data-name="Trazado 44569" d="M934.714,898.811l-.445,3.394a3.344,3.344,0,0,0-1.981-.6q-1.611,0-1.958,2.476v7.33h-3.614V902.5q0-1.163-.719-1.164a1.815,1.815,0,0,0-.992.372l-.122-2.923a6.342,6.342,0,0,1,2.675-.569,2.409,2.409,0,0,1,2.476,1.534,2.737,2.737,0,0,1,2.7-1.51,3.181,3.181,0,0,1,1.981.569" transform="translate(-396.203 -384.781)" fill="#ed1c24"/>
    <path id="Trazado_44570" data-name="Trazado 44570" d="M721.138,912.636v37.371a65.164,65.164,0,0,0,24.826,7.147V912.636Z" transform="translate(-308.924 -390.959)" fill="#ed1c24"/>
    <path id="Trazado_44571" data-name="Trazado 44571" d="M772.752,846.477l-5.986-19.352,16.352-12.494h-20.5l-6.729-19.038L749.413,814.6h-20.2l16.141,12.728-5.732,19.323,16.407-11.784Zm-29.722-24.993,0,.014Z" transform="translate(-312.383 -340.818)" fill="#ed1c24"/>
    <path id="Trazado_44572" data-name="Trazado 44572" d="M753.383,840.888h0l0,.014Z" transform="translate(-322.734 -360.223)" fill="#ed1c24"/>
    <path id="Trazado_44573" data-name="Trazado 44573" d="M790.576,911.643V956.27a65.179,65.179,0,0,0,24.64-8.87V911.643Z" transform="translate(-338.67 -390.533)" fill="#ed1c24"/>
  </g>
</svg>
