<svg xmlns="http://www.w3.org/2000/svg" width="23" height="23" viewBox="0 0 23 23">
    <g data-name="Group 96282" transform="translate(-11013 15201)">
        <circle data-name="Ellipse 1011" cx="11.5" cy="11.5" r="11.5" transform="translate(11013 -15201)" style="fill:#fff"/>
        <path data-name="Icon awesome-check-circle" d="M20.913 10.738A10.175 10.175 0 1 1 10.738.563a10.175 10.175 0 0 1 10.175 10.175zM9.561 16.126l7.549-7.55a.656.656 0 0 0 0-.928l-.928-.928a.656.656 0 0 0-.928 0L9.1 12.876 6.222 10a.657.657 0 0 0-.928 0l-.928.928a.656.656 0 0 0 0 .928l4.267 4.267a.656.656 0 0 0 .928 0z" transform="translate(11013.533 -15200.467)" style="fill:#599f29"/>
    </g>
</svg>
