<svg xmlns="http://www.w3.org/2000/svg" width="32" height="32" viewBox="0 0 32 32">
    <g data-name="Grupo 96022" transform="translate(-52 -232.875)">
        <circle data-name="Elipse 1472" cx="16" cy="16" r="16" transform="translate(52 232.875)" style="fill:#7f96b5"/>
        <path d="M203.04-831.531a1.5 1.5 0 0 0 1.106-.461 1.517 1.517 0 0 0 .458-1.109 1.5 1.5 0 0 0-.461-1.106 1.518 1.518 0 0 0-1.109-.458 1.5 1.5 0 0 0-1.106.461 1.518 1.518 0 0 0-.458 1.109 1.5 1.5 0 0 0 .461 1.106 1.517 1.517 0 0 0 1.109.458zm0 7.707a23.243 23.243 0 0 0 4.324-4.841 8.244 8.244 0 0 0 1.589-4.258 6.042 6.042 0 0 0-1.685-4.394 5.654 5.654 0 0 0-4.228-1.732 5.654 5.654 0 0 0-4.228 1.732 6.042 6.042 0 0 0-1.685 4.394 8.244 8.244 0 0 0 1.589 4.258 23.244 23.244 0 0 0 4.321 4.841zm0 1.3a29.9 29.9 0 0 1-5.151-5.64 8.846 8.846 0 0 1-1.732-4.761 6.871 6.871 0 0 1 2-5.078 6.648 6.648 0 0 1 4.879-2 6.648 6.648 0 0 1 4.879 2 6.871 6.871 0 0 1 2 5.078 8.846 8.846 0 0 1-1.732 4.761 29.894 29.894 0 0 1-5.146 5.642zm-.003-10.576z" transform="translate(-135.037 1080.136)" style="fill:#fff"/>
    </g>
</svg>
