<svg data-name="Grupo 96022" xmlns="http://www.w3.org/2000/svg" width="32" height="32" viewBox="0 0 32 32">
    <circle data-name="Elipse 1472" cx="16" cy="16" r="16" style="fill:#4c6d97"/>
    <path d="M161.647-783.685a1.6 1.6 0 0 1-1.176-.472 1.6 1.6 0 0 1-.472-1.176v-13.021a1.6 1.6 0 0 1 .472-1.176 1.6 1.6 0 0 1 1.176-.472h13.021a1.6 1.6 0 0 1 1.176.472 1.6 1.6 0 0 1 .472 1.176v13.021a1.6 1.6 0 0 1-.472 1.176 1.6 1.6 0 0 1-1.176.472zm0-1.02h13.021a.611.611 0 0 0 .451-.177.611.611 0 0 0 .176-.451v-2.824h-3.647a4.106 4.106 0 0 1-1.489 1.5 3.912 3.912 0 0 1-2 .535 3.912 3.912 0 0 1-2-.535 4.106 4.106 0 0 1-1.489-1.5h-3.65v2.824a.611.611 0 0 0 .176.451.611.611 0 0 0 .451.182zm6.51-2.432a2.97 2.97 0 0 0 1.759-.561 2.891 2.891 0 0 0 1.1-1.479h4.284v-9.177a.611.611 0 0 0-.176-.451.611.611 0 0 0-.451-.176h-13.026a.611.611 0 0 0-.451.176.611.611 0 0 0-.176.451v9.177h4.28a2.891 2.891 0 0 0 1.1 1.479 2.97 2.97 0 0 0 1.757.562zm-6.51 2.432z" transform="translate(-152.157 807.843)" style="fill:#fff"/>
</svg>
