<svg data-name="Grupo 96022" xmlns="http://www.w3.org/2000/svg" width="32" height="32" viewBox="0 0 32 32">
    <circle data-name="Elipse 1472" cx="16" cy="16" r="16" style="fill:#002f6c"/>
    <path d="m133.932-825.288.78-.78-4.246-4.246v-5.279h-1.1v5.737zm-4.013 5.119a9.664 9.664 0 0 1-3.867-.781 10.02 10.02 0 0 1-3.15-2.119 10.009 10.009 0 0 1-2.121-3.147 9.644 9.644 0 0 1-.781-3.866 9.663 9.663 0 0 1 .781-3.867 10.019 10.019 0 0 1 2.119-3.15 10.008 10.008 0 0 1 3.147-2.121 9.644 9.644 0 0 1 3.866-.781 9.662 9.662 0 0 1 3.867.781 10.019 10.019 0 0 1 3.15 2.119 10.008 10.008 0 0 1 2.121 3.147 9.643 9.643 0 0 1 .781 3.866 9.664 9.664 0 0 1-.781 3.867 10.02 10.02 0 0 1-2.119 3.15 10.008 10.008 0 0 1-3.147 2.121 9.643 9.643 0 0 1-3.866.781zm-.004-9.916zm0 8.814a8.5 8.5 0 0 0 6.238-2.575 8.5 8.5 0 0 0 2.575-6.238 8.5 8.5 0 0 0-2.575-6.238 8.5 8.5 0 0 0-6.238-2.575 8.5 8.5 0 0 0-6.238 2.575 8.5 8.5 0 0 0-2.575 6.238 8.5 8.5 0 0 0 2.575 6.238 8.5 8.5 0 0 0 6.238 2.575z" transform="translate(-113.915 846.085)" style="fill:#fff"/>
</svg>
