<svg xmlns="http://www.w3.org/2000/svg" width="32" height="32" viewBox="0 0 32 32">
    <g data-name="Grupo 96022" transform="translate(-52 -232.875)">
        <circle data-name="Elipse 1472" cx="16" cy="16" r="16" transform="translate(52 232.875)" style="fill:#7f96b5"/>
        <path d="M108.014-802.845a8.917 8.917 0 0 1-3.563-.715 9.215 9.215 0 0 1-2.9-1.958 9.216 9.216 0 0 1-1.958-2.9 8.918 8.918 0 0 1-.715-3.563 8.917 8.917 0 0 1 .715-3.563 9.216 9.216 0 0 1 1.958-2.9 9.217 9.217 0 0 1 2.9-1.958 8.917 8.917 0 0 1 3.563-.715 8.917 8.917 0 0 1 3.563.715 9.217 9.217 0 0 1 2.9 1.958 9.216 9.216 0 0 1 1.958 2.9 8.918 8.918 0 0 1 .715 3.563 8.918 8.918 0 0 1-.715 3.563 9.216 9.216 0 0 1-1.958 2.9 9.215 9.215 0 0 1-2.9 1.958 8.917 8.917 0 0 1-3.563.715zm0-9.141zm3.595 4.4.809-.809-3.832-3.832v-5.473h-1.143v5.95zm-10.555-15.341.809.809-3.977 3.977-.809-.809zm13.921 0 3.977 3.977-.809.809-3.977-3.977zm-6.961 18.935a7.708 7.708 0 0 0 5.659-2.339 7.708 7.708 0 0 0 2.339-5.659 7.708 7.708 0 0 0-2.339-5.659 7.708 7.708 0 0 0-5.659-2.339 7.708 7.708 0 0 0-5.659 2.339 7.708 7.708 0 0 0-2.339 5.659 7.708 7.708 0 0 0 2.339 5.659 7.708 7.708 0 0 0 5.659 2.343z" transform="translate(-40.014 1061.759)" style="fill:#fff"/>
    </g>
</svg>
