<svg data-name="Grupo 96022" xmlns="http://www.w3.org/2000/svg" width="32" height="32" viewBox="0 0 32 32">
    <circle data-name="Elipse 1472" cx="16" cy="16" r="16" style="fill:#3dae2b"/>
    <path d="m128.887-824.829 7.518-7.518-.832-.832-6.686 6.686-3.35-3.35-.832.832 4.182 4.182zm1.695 5.985a10.309 10.309 0 0 1-4.126-.833 10.689 10.689 0 0 1-3.36-2.26 10.679 10.679 0 0 1-2.262-3.357 10.288 10.288 0 0 1-.834-4.124 10.31 10.31 0 0 1 .833-4.126 10.689 10.689 0 0 1 2.26-3.361 10.678 10.678 0 0 1 3.357-2.262 10.287 10.287 0 0 1 4.124-.833 10.309 10.309 0 0 1 4.126.833 10.689 10.689 0 0 1 3.36 2.26 10.677 10.677 0 0 1 2.262 3.357 10.289 10.289 0 0 1 .834 4.124 10.311 10.311 0 0 1-.833 4.126 10.69 10.69 0 0 1-2.26 3.361 10.677 10.677 0 0 1-3.357 2.262 10.288 10.288 0 0 1-4.124.834zm0-1.175a9.075 9.075 0 0 0 6.67-2.733 9.075 9.075 0 0 0 2.733-6.67 9.075 9.075 0 0 0-2.733-6.67 9.075 9.075 0 0 0-6.67-2.733 9.075 9.075 0 0 0-6.67 2.733 9.075 9.075 0 0 0-2.733 6.67 9.075 9.075 0 0 0 2.733 6.67 9.075 9.075 0 0 0 6.666 2.733zm-.004-9.403z" transform="translate(-114.578 845.422)" style="fill:#fff"/>
</svg>
