<svg xmlns="http://www.w3.org/2000/svg" width="32" height="32" viewBox="0 0 32 32">
    <g data-name="Grupo 96022" transform="translate(-52 -232.875)">
        <circle data-name="Elipse 1472" cx="16" cy="16" r="16" transform="translate(52 232.875)" style="fill:#4c6d97"/>
        <path d="M166.025-758.242v-1.073h11.142v1.073zm0-6.437v-1.073h11.142v1.073zm0-6.437v-1.073h11.142v1.073zm-4.6 13.762a1.371 1.371 0 0 1-1.005-.418 1.371 1.371 0 0 1-.418-1.005 1.371 1.371 0 0 1 .418-1.005 1.371 1.371 0 0 1 1.005-.418 1.371 1.371 0 0 1 1.005.418 1.371 1.371 0 0 1 .418 1.005 1.371 1.371 0 0 1-.418 1.005 1.371 1.371 0 0 1-1.006.417zm0-6.437a1.371 1.371 0 0 1-1.005-.418 1.371 1.371 0 0 1-.418-1.005 1.371 1.371 0 0 1 .418-1.005 1.371 1.371 0 0 1 1.005-.418 1.371 1.371 0 0 1 1.005.418 1.371 1.371 0 0 1 .418 1.005 1.371 1.371 0 0 1-.418 1.005 1.371 1.371 0 0 1-1.006.417zm0-6.437a1.371 1.371 0 0 1-1.005-.418 1.371 1.371 0 0 1-.418-1.005 1.371 1.371 0 0 1 .418-1.005 1.371 1.371 0 0 1 1.005-.418 1.371 1.371 0 0 1 1.005.418 1.371 1.371 0 0 1 .418 1.005 1.371 1.371 0 0 1-.418 1.005 1.371 1.371 0 0 1-1.006.416z" transform="translate(-100.583 1015.354)" style="fill:#fff"/>
    </g>
</svg>
