<svg data-name="Grupo 96022" xmlns="http://www.w3.org/2000/svg" width="32" height="32" viewBox="0 0 32 32">
    <circle data-name="Elipse 1472" cx="16" cy="16" r="16" style="fill:#2acbff"/>
    <path d="M161.629-830.841a1.578 1.578 0 0 1-1.163-.466 1.578 1.578 0 0 1-.466-1.163v-12.881a1.578 1.578 0 0 1 .467-1.163 1.578 1.578 0 0 1 1.163-.467h1.785v-2.25h1.085v2.25h7.216v-2.25h1.009v2.25h1.785a1.578 1.578 0 0 1 1.163.467 1.578 1.578 0 0 1 .467 1.163v12.881a1.579 1.579 0 0 1-.467 1.163 1.578 1.578 0 0 1-1.163.466zm0-1.009h12.88a.593.593 0 0 0 .427-.194.593.593 0 0 0 .194-.427v-8.846h-14.121v8.846a.594.594 0 0 0 .194.427.593.593 0 0 0 .426.194zm-.621-10.475h14.122v-3.026a.593.593 0 0 0-.194-.427.593.593 0 0 0-.427-.194h-12.88a.593.593 0 0 0-.427.194.593.593 0 0 0-.194.427zm0 0z" transform="translate(-152.07 856.037)" style="fill:#fff"/>
</svg>
