<svg xmlns="http://www.w3.org/2000/svg" width="32" height="32" viewBox="0 0 32 32">
    <g data-name="Grupo 96022" transform="translate(-52 -232.875)">
        <circle data-name="Elipse 1472" cx="16" cy="16" r="16" transform="translate(52 232.875)" style="fill:#7f96b5"/>
        <path d="M161.647-830.641a1.6 1.6 0 0 1-1.176-.472 1.6 1.6 0 0 1-.472-1.176v-13.021a1.6 1.6 0 0 1 .472-1.176 1.6 1.6 0 0 1 1.176-.472h1.8v-2.275h1.1v2.275h7.295v-2.275h1.02v2.275h1.8a1.6 1.6 0 0 1 1.176.472 1.6 1.6 0 0 1 .472 1.176v13.021a1.6 1.6 0 0 1-.472 1.176 1.6 1.6 0 0 1-1.176.472zm0-1.02h13.021a.6.6 0 0 0 .431-.2.6.6 0 0 0 .2-.431v-8.942H161.02v8.942a.6.6 0 0 0 .2.431.6.6 0 0 0 .427.2zm-.627-10.589h14.28v-3.059a.6.6 0 0 0-.2-.431.6.6 0 0 0-.431-.2h-13.022a.6.6 0 0 0-.431.2.6.6 0 0 0-.2.431zm0 0zm7.138 4.628a.753.753 0 0 1-.55-.234.753.753 0 0 1-.234-.55.753.753 0 0 1 .234-.55.753.753 0 0 1 .55-.234.753.753 0 0 1 .55.234.753.753 0 0 1 .234.55.753.753 0 0 1-.234.55.753.753 0 0 1-.551.234zm-4.079 0a.753.753 0 0 1-.55-.234.753.753 0 0 1-.234-.55.753.753 0 0 1 .234-.55.753.753 0 0 1 .55-.234.753.753 0 0 1 .55.234.753.753 0 0 1 .234.55.753.753 0 0 1-.234.55.753.753 0 0 1-.55.234zm8.157 0a.753.753 0 0 1-.55-.234.753.753 0 0 1-.234-.55.753.753 0 0 1 .234-.55.753.753 0 0 1 .55-.234.753.753 0 0 1 .55.234.753.753 0 0 1 .234.55.753.753 0 0 1-.234.55.753.753 0 0 1-.55.234zm-4.079 3.922a.753.753 0 0 1-.55-.234.753.753 0 0 1-.234-.55.753.753 0 0 1 .234-.55.753.753 0 0 1 .55-.234.753.753 0 0 1 .55.234.753.753 0 0 1 .234.55.753.753 0 0 1-.234.55.753.753 0 0 1-.55.234zm-4.079 0a.753.753 0 0 1-.55-.234.753.753 0 0 1-.234-.55.753.753 0 0 1 .234-.55.753.753 0 0 1 .55-.234.753.753 0 0 1 .55.234.753.753 0 0 1 .234.55.753.753 0 0 1-.234.55.753.753 0 0 1-.549.234zm8.157 0a.753.753 0 0 1-.55-.234.753.753 0 0 1-.234-.55.753.753 0 0 1 .234-.55.753.753 0 0 1 .55-.234.753.753 0 0 1 .55.234.753.753 0 0 1 .234.55.753.753 0 0 1-.234.55.753.753 0 0 1-.549.234z" transform="translate(-100.157 1088.811)" style="fill:#fff"/>
    </g>
</svg>
