<svg xmlns="http://www.w3.org/2000/svg" xmlns:xlink="http://www.w3.org/1999/xlink" width="56" height="56" viewBox="0 0 56 56">
  <defs>
    <filter id="Icon_style_" x="0" y="0" width="56" height="56" filterUnits="userSpaceOnUse">
      <feOffset dy="1" input="SourceAlpha"/>
      <feGaussianBlur stdDeviation="2" result="blur"/>
      <feFlood flood-opacity="0.251"/>
      <feComposite operator="in" in2="blur"/>
      <feComposite in="SourceGraphic"/>
    </filter>
  </defs>
  <g id="Icon" transform="translate(6 5)">
    <g transform="matrix(1, 0, 0, 1, -6, -5)" filter="url(#Icon_style_)">
      <path id="Icon_style_2" data-name="Icon (style)" d="M22,0A22,22,0,1,1,0,22,22,22,0,0,1,22,0Z" transform="translate(6 5)" fill="#204180"/>
    </g>
    <g id="Icon_feather-video" data-name="Icon feather-video" transform="translate(12.605 15.456)">
      <path id="Trazado_8265" data-name="Trazado 8265" d="M30.879,10.5,24,15.413l6.879,4.913Z" transform="translate(-9.26 -8.535)" fill="none" stroke="#f6f6f9" stroke-linecap="round" stroke-linejoin="round" stroke-width="2"/>
      <path id="Trazado_8266" data-name="Trazado 8266" d="M3.465,7.5h10.81A1.965,1.965,0,0,1,16.24,9.465v9.827a1.965,1.965,0,0,1-1.965,1.965H3.465A1.965,1.965,0,0,1,1.5,19.292V9.465A1.965,1.965,0,0,1,3.465,7.5Z" transform="translate(-1.5 -7.5)" fill="none" stroke="#f6f6f9" stroke-linecap="round" stroke-linejoin="round" stroke-width="2"/>
    </g>
  </g>
</svg>
