<svg height="18.85" viewBox="0 0 19.389 18.85" width="19.389" xmlns="http://www.w3.org/2000/svg"><path d="m17.849 25.3v-1.67a8.106 8.106 0 0 0 4.268-2.895 7.734 7.734 0 0 0 1.656-4.861 8.027 8.027 0 0 0 -5.924-7.754v-1.67a9.592 9.592 0 0 1 7.54 9.425 9.592 9.592 0 0 1 -7.54 9.425zm-11.849-6.167v-6.463h4.309l5.386-5.386v17.235l-5.386-5.386zm11.31 1.293v-9.075a4.413 4.413 0 0 1 2.343 1.723 4.807 4.807 0 0 1 .889 2.827 4.729 4.729 0 0 1 -.889 2.827 4.459 4.459 0 0 1 -2.343 1.698zm-3.231-9.048-3.043 2.908h-3.42v3.231h3.42l3.043 2.935z" fill="#f6f6f9" transform="translate(-6 -6.45)"/></svg>