<svg height="24" viewBox="0 0 24 24" width="24" xmlns="http://www.w3.org/2000/svg"><path d="m0 0h24v24h-24z" fill="none"/><path d="m4.34 2.93-1.41 1.41 4.36 4.36-.29.3h-4v6h4l5 5v-6.59l4.18 4.18a6.711 6.711 0 0 1 -2.18 1.11v2.06a8.94 8.94 0 0 0 3.61-1.75l2.05 2.05 1.41-1.41zm5.66 12.24-2.17-2.17h-2.83v-2h2.83l.88-.88 1.29 1.29zm9-3.17a6.975 6.975 0 0 1 -.41 2.34l1.53 1.53a8.984 8.984 0 0 0 -6.12-12.64v2.06a7.005 7.005 0 0 1 5 6.71zm-7-8-1.88 1.88 1.88 1.88zm4.5 8a4.5 4.5 0 0 0 -2.5-4.03v1.79l2.48 2.48a1.942 1.942 0 0 0 .02-.24z" fill="#f6f6f9"/></svg>