<svg xmlns="http://www.w3.org/2000/svg" width="56" height="56" viewBox="0 0 56 56"><g transform="translate(0 0.258)"><rect width="56" height="56" transform="translate(0 -0.258)" fill="none"/><g transform="translate(10.121 9.863)"><rect width="36" height="36" transform="translate(-0.121 -0.121)" fill="none"/><g transform="translate(0 8.939)"><path d="M5.96,16.429a2.98,2.98,0,1,0-2.98-2.98A2.989,2.989,0,0,0,5.96,16.429Zm1.684,1.639a10.4,10.4,0,0,0-1.684-.149,10.356,10.356,0,0,0-4.142.864A3,3,0,0,0,0,21.54v2.339H6.7v-2.4A6.7,6.7,0,0,1,7.643,18.068ZM29.8,16.429a2.98,2.98,0,1,0-2.98-2.98A2.989,2.989,0,0,0,29.8,16.429Zm5.96,5.11a3,3,0,0,0-1.818-2.756,10.129,10.129,0,0,0-5.826-.715,6.7,6.7,0,0,1,.939,3.412v2.4h6.7ZM24.2,17.4a15.559,15.559,0,0,0-6.317-1.341A15.809,15.809,0,0,0,11.562,17.4,4.452,4.452,0,0,0,8.939,21.48v2.4H26.818v-2.4A4.452,4.452,0,0,0,24.2,17.4ZM12.024,20.9c.134-.343.194-.581,1.356-1.028a12.55,12.55,0,0,1,9,0c1.147.447,1.207.685,1.356,1.028ZM17.879,8.98a1.49,1.49,0,1,1-1.49,1.49,1.494,1.494,0,0,1,1.49-1.49m0-2.98a4.47,4.47,0,1,0,4.47,4.47A4.464,4.464,0,0,0,17.879,6Z" transform="translate(0 -6)" fill="#204180"/></g></g></g></svg>